<?xml version="1.0" encoding="utf-8"?>
<!-- Generator: Adobe Illustrator 11.0, SVG Export Plug-In  -->
<!DOCTYPE svg PUBLIC "-//W3C//DTD SVG 1.0//EN"    "http://www.w3.org/TR/2001/REC-SVG-20010904/DTD/svg10.dtd" [
	<!ENTITY ns_flows "http://ns.adobe.com/Flows/1.0/">
	<!ENTITY ns_svg "http://www.w3.org/2000/svg">
	<!ENTITY ns_xlink "http://www.w3.org/1999/xlink">
]>
<svg  xmlns="&ns_svg;" xmlns:xlink="&ns_xlink;" xmlns:a="http://ns.adobe.com/AdobeSVGViewerExtensions/3.0/"
	 width="182" height="182" viewBox="0 -0.742 182 182" xml:space="preserve">
	<defs>
	</defs>
	<g>
		<g>
			<defs>
				<rect id="XMLID_12_" width="181.259" height="181.258"/> 
			</defs>
			<clipPath id="XMLID_2_">
				<use xlink:href="#XMLID_12_" />
			</clipPath>
			<path clip-path="url(#XMLID_2_)" d="M23.398,90.629c0-37.125,30.107-67.229,67.229-67.229v0.5v0.5
				c-18.286,0-34.839,7.414-46.828,19.4C31.813,55.787,24.398,72.34,24.398,90.629c0,18.286,7.414,34.84,19.401,46.828
				c11.988,11.987,28.542,19.399,46.828,19.399c18.29,0,34.844-7.412,46.831-19.399c11.986-11.988,19.4-28.542,19.4-46.828
				c0-18.289-7.414-34.842-19.4-46.829c-11.987-11.986-28.541-19.4-46.831-19.4v-0.5v-0.5c37.126,0,67.231,30.104,67.231,67.229
				c0,37.123-30.105,67.228-67.231,67.229C53.505,157.856,23.398,127.752,23.398,90.629"/>
			<g clip-path="url(#XMLID_2_)">
				<g>
					<defs>
						<rect id="XMLID_11_" x="54.516" y="54.682" width="72.29" height="72.341"/> 
					</defs>
					<clipPath id="XMLID_4_">
						<use xlink:href="#XMLID_11_" />
					</clipPath>
					<path clip-path="url(#XMLID_4_)" fill="#989088" d="M126.605,86.132c0.069,3.15,0.13,6.3,0.201,9.45
						c-3.352,0.32-6.691,0.64-10.031,0.96c0.189,2.04-0.91,5.13-3.28,9.26c1.93,2.38,3.851,4.761,5.78,7.141
						c-2.18,2.31-4.37,4.63-6.561,6.939c-1.6-2.569-3.21-5.14-4.819-7.71c-0.29,0.2-0.58,0.4-0.88,0.59h-0.44h-30.36
						c-2.77,2.061-5.29,4.301-8.06,6.351c-2.05-2.05-4.11-4.11-6.17-6.17c1.87-2.57,4.21-5.44,6.08-8.021
						c-1.61-2.08-2.95-4.64-3.6-8.17c-3.15-0.52-6.659-0.85-9.81-1.36c-0.13-3.149-0.019-6.37-0.14-9.52
						c3.34-0.25,6.44-0.45,9.791-0.71c0.83-2.97,1.939-5.81,3.469-8.49c-1.929-2.76-3.86-5.53-5.79-8.29
						c2.12-2.12,4.25-4.25,6.37-6.37c2.63,2.06,5.27,4.12,7.91,6.18c2.8-1.78,5.71-3.08,8.68-4.06c0.25-3.14,0.51-6.3,0.77-9.45
						c3.28,0.07,6.56,0.13,9.841,0.2c0.318,3.28,0.639,6.56,0.959,9.83c3.05,0.15,5.949,1.21,8.68,3.28
						c2.51-1.99,5.02-3.98,7.52-5.98c2.25,2.12,4.511,4.25,6.761,6.37c-2.061,2.57-4.12,5.14-6.181,7.71
						c2.04,2.72,3.08,5.65,3.67,8.69C120.175,85.232,123.396,85.682,126.605,86.132 M107.285,90.852c0-9.18-7.439-16.63-16.63-16.63
						c-9.18,0-16.63,7.45-16.63,16.63c0,4.59,1.861,8.75,4.87,11.77c3.01,3.01,7.17,4.87,11.76,4.87s8.75-1.86,11.76-4.87
						C105.425,99.602,107.285,95.442,107.285,90.852"/>
					<path clip-path="url(#XMLID_4_)" fill="#C6C2B8" d="M106.575,112.763h0.44c-3.24,2.119-6.71,3.68-10.5,4.42
						c-0.261,3.279-0.511,6.56-0.771,9.84c-3.34-0.061-6.69-0.131-10.03-0.19c-0.26-3.02-0.52-6.71-0.77-9.729
						c-3.16-0.75-6.07-2.311-8.73-4.34H106.575z"/>
					<path clip-path="url(#XMLID_4_)" fill="#FFFFFF" d="M90.655,74.222c9.19,0,16.63,7.45,16.63,16.63
						c0,4.59-1.859,8.75-4.87,11.77c-3.01,3.01-7.17,4.87-11.76,4.87s-8.75-1.86-11.76-4.87c-3.01-3.02-4.87-7.18-4.87-11.77
						C74.025,81.672,81.475,74.222,90.655,74.222 M90.655,74.432c-9.06,0.02-16.4,7.36-16.42,16.42c0.01,4.53,1.85,8.63,4.82,11.6
						c2.97,2.97,7.07,4.81,11.6,4.82c4.53-0.011,8.63-1.851,11.6-4.82c2.971-2.97,4.811-7.07,4.82-11.6
						c-0.01-4.53-1.85-8.63-4.82-11.6C99.285,76.282,95.186,74.442,90.655,74.432"/>
					<path clip-path="url(#XMLID_4_)" fill="#EDAD02" d="M90.855,86.692c2.189,0,3.96,1.78,3.96,3.96c0,2.19-1.771,3.97-3.96,3.97
						c-2.181,0-3.96-1.78-3.96-3.97C86.896,88.472,88.674,86.692,90.855,86.692"/>
				</g>
			</g>
			<path clip-path="url(#XMLID_2_)" fill-rule="evenodd" clip-rule="evenodd" fill="#EDAD02" d="M140.282,85.541
				c-0.607-19.269-20.959-45.568-49.42-44.424c0,1.143,0.02,1.859,0.02,2.999c-2.202-2.052-4.404-4.102-6.603-6.154
				c2.124-2.049,4.247-4.099,6.374-6.147c0.074,1.063,0.149,2.125,0.229,3.187c30.589-0.873,53.781,25.143,55.551,50.726
				c-1.139-0.988-1.824-2.386-2.963-3.374C142.406,83.417,141.343,84.478,140.282,85.541"/>
			<path clip-path="url(#XMLID_2_)" fill="#EDAD02" d="M143.636,84.272c2.039,2.13,4.079,4.27,6.119,6.4
				c-1.06,0.07-2.13,0.14-3.189,0.21c0.17,6.91-1.03,13.431-3.28,19.41l-0.34-0.12h-6.19c2.54-5.84,3.94-12.33,3.69-19.33
				c-1.14,0-1.85,0.01-2.99,0.01C139.516,88.662,141.574,86.462,143.636,84.272"/>
			<path clip-path="url(#XMLID_2_)" fill="#F8D071" d="M142.945,110.172l0.34,0.12c-7.729,20.51-27.861,34.64-47.67,35.941
				c0.99-1.142,2.39-1.821,3.38-2.951c-1.06-1.07-2.109-2.141-3.17-3.2c14.53-0.4,33.11-12.01,40.92-29.91h0.01H142.945z"/>
			<path clip-path="url(#XMLID_2_)" fill-rule="evenodd" clip-rule="evenodd" fill="#EDAD02" d="M85.714,41.22
				c-19.448,0.45-44.89,20.645-44.743,49.372c1.139,0.05,1.855,0.062,2.994,0.112c-2.145,2.108-3.866,4.568-6.012,6.679
				c-1.953-2.213-3.984-4.425-5.937-6.638c1.064-0.029,2.129-0.058,3.193-0.087C34.191,59.164,60.516,36.9,86.06,35.155
				c-1.035,1.094-2.429,1.598-3.464,2.692C83.611,38.955,84.697,40.113,85.714,41.22"/>
			<path clip-path="url(#XMLID_2_)" fill="#F8D071" d="M96.896,143.642l-6.05,6.101c-0.181-1.05,0.079-2.101-0.101-3.15
				c-25.669,0.12-43.5-16.71-51.26-33.86h6.7c7.109,14.011,21.93,27.761,45.029,27.891c-0.119-1.13-0.21-1.84-0.329-2.98
				L96.896,143.642z"/>
			<path clip-path="url(#XMLID_2_)" fill="#EDAD02" d="M46.186,112.731h-6.7c-2.64-5.84-4.12-11.729-4.33-16.989
				c1.23,0.859,1.929,2.17,3.16,3.029c0.95-1.159,1.939-2.409,2.89-3.569C41.405,100.332,43.044,106.562,46.186,112.731"/>
		</g>
		<g>
			<defs>
				<path id="XMLID_10_" d="M23.899,90.629c0,36.848,29.882,66.729,66.731,66.729l0,0c36.848,0,66.729-29.881,66.729-66.729l0,0
					c0-36.848-29.882-66.73-66.729-66.73l0,0C53.781,23.899,23.899,53.781,23.899,90.629"/>
			</defs>
			<clipPath id="XMLID_6_">
				<use xlink:href="#XMLID_10_" />
			</clipPath>
			<path clip-path="url(#XMLID_6_)" fill="#407EB9" d="M154.675,148.5l-0.743,4.946l-1.097-0.149l-1.107-0.104l-1.104-0.069
				l-1.102-0.027l-1.119,0.012l-1.107,0.051l-1.112,0.083l-1.114,0.107l-1.119,0.135l-1.127,0.163l-1.115,0.199l-1.131,0.21
				l-1.129,0.231l-1.125,0.248l-1.133,0.264l-1.139,0.287l-1.137,0.289l-1.133,0.305l-1.14,0.303l-1.138,0.315l-1.143,0.314
				l-1.139,0.317l-1.145,0.321l-1.151,0.305l-1.136,0.297l-1.152,0.296l-1.141,0.281l-1.154,0.259l-1.15,0.248l-1.146,0.229
				l-1.152,0.206l-1.158,0.18l-0.703-4.946l1.039-0.158l1.055-0.188l1.069-0.21l1.073-0.227l1.076-0.258l1.1-0.264l1.094-0.275
				l1.119-0.297l1.111-0.307l1.125-0.301l1.139-0.315l1.143-0.314l1.156-0.316l1.16-0.322l1.172-0.306l1.174-0.307l1.179-0.287
				l1.192-0.283l1.203-0.27l1.205-0.25l1.211-0.229l1.232-0.198l1.225-0.184l1.236-0.155l1.249-0.126l1.251-0.084l1.265-0.048
				l1.255-0.012l1.278,0.026l1.281,0.068l1.28,0.122L154.675,148.5z M117.737,159.552l-0.203,0.029h-0.147L117.737,159.552z
				 M117.034,154.605l0.703,4.946l-0.351,0.029l-0.978-0.026l-0.969-0.049l-0.959-0.088l-0.945-0.116l-0.927-0.142l-0.921-0.165
				l-0.906-0.197l-0.893-0.206l-0.887-0.221l-0.873-0.238l-0.86-0.251l-0.857-0.262l-0.846-0.27l-0.842-0.266l-0.834-0.271
				l-0.822-0.271l-0.823-0.273l-0.813-0.27l-0.805-0.269l-0.807-0.25l-0.799-0.24l-0.801-0.23l-0.796-0.22l-0.79-0.203l-0.793-0.187
				l-0.789-0.157l-0.783-0.146l-0.792-0.122l-0.788-0.095l-0.785-0.07l-0.791-0.048l-0.801-0.009v-5.004l0.975,0.027l0.971,0.049
				l0.96,0.089l0.944,0.116l0.928,0.142l0.921,0.165l0.905,0.196l0.893,0.205l0.887,0.224l0.873,0.238l0.861,0.25l0.857,0.26
				l0.846,0.271l0.844,0.266l0.832,0.27l0.822,0.273l0.822,0.272l0.813,0.271l0.806,0.266l0.805,0.25l0.8,0.242l0.802,0.231
				l0.795,0.217l0.789,0.204l0.793,0.186l0.789,0.157l0.785,0.146l0.791,0.122l0.787,0.098l0.783,0.069l0.793,0.049l0.802,0.006
				L117.034,154.605z M90.313,148.75 M90.313,148.75v5.004l-0.877,0.01l-0.867,0.055l-0.885,0.08l-0.886,0.11l-0.896,0.14
				l-0.905,0.165l-0.906,0.189l-0.915,0.202l-0.926,0.23l-0.926,0.246l-0.933,0.264l-0.936,0.283l-0.945,0.284l-0.955,0.3
				l-0.954,0.297l-0.964,0.309l-0.965,0.307l-0.974,0.316l-0.973,0.301l-0.985,0.302l-0.994,0.286l-0.993,0.28l-1.004,0.269
				l-1.003,0.25l-1.014,0.24l-1.023,0.209l-1.023,0.185l-1.032,0.159l-1.043,0.13l-1.041,0.099l-1.064,0.056l-1.051,0.028v-5.004
				l0.876-0.01l0.866-0.055l0.887-0.08l0.887-0.11l0.894-0.138l0.906-0.166l0.907-0.19l0.914-0.202l0.926-0.23l0.925-0.246
				l0.936-0.262l0.934-0.285l0.945-0.283l0.955-0.301l0.953-0.295l0.965-0.309l0.965-0.309l0.974-0.314l0.974-0.303l0.983-0.302
				l0.995-0.283l0.994-0.281l1.002-0.269l1.003-0.25l1.014-0.24l1.024-0.209l1.023-0.187l1.032-0.159l1.043-0.128l1.041-0.099
				l1.063-0.055L90.313,148.75z M59.455,160.334l-0.049-0.01l0.449,0.01H59.455z M59.455,155.33v5.004l-0.049-0.01l-1.121-0.047
				l-1.113-0.097l-1.086-0.136l-1.084-0.185l-1.068-0.206l-1.056-0.244l-1.042-0.262l-1.029-0.297l-1.018-0.305l-1.018-0.321
				l-1.005-0.337l-0.999-0.348l-0.988-0.344l-0.98-0.348l-0.983-0.347l-0.976-0.347l-0.969-0.33l-0.963-0.322l-0.969-0.309
				l-0.955-0.295l-0.963-0.266l-0.966-0.254l-0.957-0.217l-0.963-0.2l-0.963-0.161l-0.965-0.134l-0.963-0.097l-0.977-0.064
				l-0.984-0.021l-0.98,0.027l-1,0.07l-1.006,0.122l-0.685-4.946l1.241-0.142l1.217-0.087l1.213-0.027l1.182,0.02l1.17,0.065
				l1.159,0.116l1.14,0.154l1.119,0.197l1.1,0.219l1.093,0.259l1.066,0.273l1.059,0.304l1.053,0.314l1.027,0.33l1.023,0.341
				l1.008,0.35l0.994,0.345l0.983,0.35l0.98,0.348l0.97,0.343l0.958,0.326l0.949,0.317l0.938,0.303l0.94,0.285l0.933,0.256
				l0.924,0.243l0.92,0.208l0.91,0.186l0.908,0.144l0.912,0.118l0.899,0.078l0.904,0.044L59.455,155.33z M154.675,138.449
				l-0.743,4.945l-1.097-0.148l-1.107-0.104l-1.104-0.069l-1.102-0.025l-1.119,0.012l-1.107,0.048l-1.112,0.084l-1.114,0.106
				l-1.119,0.136l-1.127,0.163l-1.115,0.198l-1.131,0.211l-1.129,0.23l-1.125,0.248l-1.133,0.265l-1.139,0.289l-1.137,0.286
				l-1.133,0.307l-1.14,0.301l-1.138,0.316l-1.143,0.316l-1.139,0.314l-1.145,0.321l-1.151,0.305l-1.136,0.3l-1.152,0.294
				l-1.141,0.281l-1.154,0.259l-1.15,0.247l-1.146,0.229l-1.152,0.205l-1.158,0.181l-0.703-4.944l1.039-0.161l1.055-0.187
				l1.069-0.209l1.073-0.229l1.076-0.258l1.1-0.263l1.094-0.277l1.119-0.296l1.111-0.305l1.125-0.303l1.139-0.314l1.143-0.316
				l1.156-0.316l1.16-0.318l1.172-0.308l1.174-0.309l1.179-0.287l1.192-0.283l1.203-0.268l1.205-0.25l1.211-0.231l1.232-0.197
				l1.225-0.185l1.236-0.155l1.249-0.124l1.251-0.083l1.265-0.051l1.255-0.012l1.278,0.027l1.281,0.068l1.28,0.122L154.675,138.449z
				 M117.737,149.501l-0.203,0.029h-0.147L117.737,149.501z M117.034,144.557l0.703,4.944l-0.351,0.029l-0.978-0.025l-0.969-0.049
				l-0.959-0.089l-0.945-0.116l-0.927-0.142l-0.921-0.165l-0.906-0.196l-0.893-0.205l-0.887-0.224l-0.873-0.238l-0.86-0.25
				l-0.857-0.262l-0.846-0.271l-0.842-0.266l-0.834-0.27l-0.822-0.273l-0.823-0.271l-0.813-0.271l-0.805-0.266l-0.807-0.25
				l-0.799-0.242l-0.801-0.231l-0.796-0.217l-0.79-0.204l-0.793-0.186l-0.789-0.157l-0.783-0.146l-0.792-0.123l-0.788-0.097
				l-0.785-0.069l-0.791-0.049l-0.801-0.006v-5.004l0.975,0.027l0.971,0.048l0.96,0.087l0.944,0.117l0.928,0.142l0.921,0.165
				l0.905,0.197l0.893,0.206l0.887,0.221l0.873,0.239l0.861,0.25l0.857,0.262l0.846,0.27l0.844,0.266l0.832,0.271l0.822,0.271
				l0.822,0.273l0.813,0.271l0.806,0.266l0.805,0.25l0.8,0.241l0.802,0.23l0.795,0.22l0.789,0.203l0.793,0.187l0.789,0.157
				l0.785,0.146l0.791,0.122l0.787,0.097l0.783,0.068l0.793,0.048l0.802,0.008L117.034,144.557z M90.313,138.701 M90.313,138.701
				v5.004l-0.877,0.008l-0.867,0.057l-0.885,0.079l-0.886,0.108l-0.896,0.14l-0.905,0.167l-0.906,0.19l-0.915,0.2l-0.916,0.233
				l-0.936,0.245l-0.933,0.262l-0.936,0.286l-0.945,0.28l-0.955,0.301l-0.954,0.297l-0.964,0.309l-0.965,0.307l-0.974,0.315
				l-0.973,0.301l-0.985,0.303l-0.994,0.285l-0.993,0.281l-0.994,0.268l-1.013,0.25l-1.014,0.241l-1.023,0.209l-1.023,0.185
				l-1.032,0.16l-1.043,0.128l-1.041,0.1l-1.064,0.055l-1.051,0.028v-5.004l0.876-0.01l0.866-0.054l0.887-0.08l0.887-0.108
				l0.894-0.139l0.906-0.168l0.907-0.19l0.914-0.199l0.916-0.233l0.935-0.246l0.936-0.262l0.934-0.284l0.945-0.284l0.955-0.301
				l0.953-0.295l0.965-0.308l0.965-0.309l0.974-0.314l0.974-0.301l0.983-0.305l0.995-0.283l0.994-0.281l0.992-0.268l1.013-0.25
				l1.014-0.24l1.024-0.21l1.023-0.185l1.032-0.158l1.043-0.131l1.041-0.099l1.063-0.054L90.313,138.701z M59.455,150.282
				l-0.049-0.009l0.451,0.009H59.455z M59.455,145.278v5.004l-0.049-0.009l-1.121-0.045l-1.113-0.1l-1.086-0.135l-1.084-0.185
				l-1.068-0.204l-1.056-0.246l-1.042-0.262l-1.029-0.295l-1.028-0.307l-1.008-0.322l-1.005-0.335l-0.999-0.348l-0.988-0.343
				l-0.98-0.35l-0.983-0.348l-0.966-0.347l-0.979-0.329l-0.963-0.32l-0.969-0.311l-0.955-0.293l-0.963-0.266l-0.966-0.254
				l-0.957-0.22l-0.963-0.199l-0.963-0.159l-0.965-0.134l-0.963-0.097l-0.977-0.066l-0.984-0.02l-0.98,0.027l-1,0.067l-1.006,0.122
				l-0.685-4.945l1.241-0.142l1.217-0.088l1.213-0.024l1.182,0.019l1.17,0.064l1.159,0.116l1.14,0.153l1.119,0.2l1.1,0.219
				l1.093,0.258l1.066,0.271l1.059,0.305l1.053,0.314l1.027,0.33l1.023,0.341l0.999,0.349l1.003,0.346l0.983,0.35l0.98,0.347
				l0.97,0.346l0.958,0.325l0.949,0.316l0.948,0.303l0.93,0.287l0.933,0.254l0.924,0.244l0.92,0.206l0.91,0.187l0.908,0.143
				l0.912,0.119l0.899,0.077l0.904,0.045L59.455,145.278z M154.675,128.419l-0.743,4.946l-1.097-0.149l-1.107-0.103l-1.104-0.07
				l-1.102-0.027l-1.119,0.012l-1.107,0.051l-1.112,0.083l-1.114,0.106l-1.119,0.137l-1.127,0.162l-1.115,0.198l-1.131,0.211
				l-1.129,0.231l-1.125,0.248l-1.133,0.264l-1.139,0.287l-1.137,0.289l-1.133,0.305l-1.14,0.303l-1.138,0.314l-1.143,0.317
				l-1.139,0.314l-1.145,0.322l-1.151,0.304l-1.136,0.297l-1.152,0.297l-1.141,0.281l-1.154,0.258l-1.15,0.249l-1.146,0.229
				l-1.152,0.206l-1.158,0.181l-0.703-4.944l1.039-0.162l1.055-0.185l1.069-0.209l1.073-0.23l1.076-0.258l1.1-0.264l1.094-0.275
				l1.119-0.297l1.111-0.305l1.125-0.303l1.139-0.313l1.143-0.316l1.156-0.316l1.16-0.322l1.172-0.307l1.174-0.307l1.179-0.287
				l1.192-0.283l1.203-0.27l1.205-0.25l1.211-0.229l1.232-0.198l1.225-0.184l1.236-0.155l1.249-0.123l1.251-0.085l1.265-0.05
				l1.255-0.012l1.278,0.027l1.281,0.067l1.28,0.122L154.675,128.419z M117.737,139.472l-0.203,0.028h-0.147L117.737,139.472z
				 M117.034,134.527l0.703,4.944l-0.351,0.028l-0.978-0.027l-0.969-0.049l-0.959-0.087l-0.945-0.115l-0.927-0.143l-0.921-0.165
				l-0.906-0.195l-0.893-0.205l-0.887-0.224l-0.873-0.239l-0.86-0.25l-0.857-0.262l-0.846-0.27l-0.842-0.266l-0.834-0.271
				l-0.822-0.271l-0.823-0.273l-0.813-0.27l-0.805-0.266l-0.807-0.253l-0.799-0.24l-0.801-0.231l-0.796-0.219l-0.79-0.201
				l-0.793-0.187l-0.789-0.157l-0.783-0.147l-0.792-0.12L92.69,133.8l-0.785-0.07l-0.791-0.048l-0.801-0.006v-5.005l0.975,0.027
				l0.971,0.048l0.96,0.088l0.944,0.116l0.928,0.142l0.921,0.165l0.905,0.198l0.893,0.203l0.887,0.223l0.873,0.239l0.861,0.25
				l0.857,0.262l0.846,0.27l0.844,0.266l0.832,0.272l0.822,0.271l0.822,0.273l0.813,0.27l0.806,0.268l0.805,0.25l0.8,0.241
				l0.802,0.229l0.795,0.22l0.789,0.202l0.793,0.188l0.789,0.155l0.785,0.147l0.791,0.12l0.787,0.097l0.783,0.07l0.793,0.049
				l0.802,0.006L117.034,134.527z M90.313,128.671 M90.313,128.671v5.005l-0.877,0.008l-0.867,0.054l-0.885,0.079l-0.886,0.111
				l-0.896,0.14l-0.905,0.165l-0.906,0.189l-0.915,0.202l-0.916,0.23l-0.936,0.248l-0.933,0.263l-0.936,0.283l-0.945,0.283
				l-0.955,0.3l-0.954,0.297l-0.964,0.309l-0.965,0.307l-0.974,0.315l-0.973,0.301l-0.985,0.303l-0.994,0.285l-0.993,0.281
				l-0.994,0.268l-1.013,0.25l-1.014,0.242l-1.023,0.208l-1.023,0.185l-1.032,0.159l-1.043,0.13l-1.041,0.099l-1.064,0.055
				l-1.051,0.029v-5.005l0.876-0.01l0.866-0.054l0.887-0.08l0.887-0.11l0.894-0.138l0.906-0.167l0.907-0.189l0.914-0.2l0.916-0.232
				l0.935-0.247l0.936-0.262l0.934-0.285l0.945-0.283l0.955-0.301l0.953-0.295l0.965-0.308l0.965-0.309l0.974-0.314l0.974-0.3
				l0.983-0.305l0.995-0.283l0.994-0.281l0.992-0.268l1.013-0.251l1.014-0.24l1.024-0.21l1.023-0.184l1.032-0.159l1.043-0.13
				l1.041-0.1l1.063-0.054L90.313,128.671z M59.455,140.253l-0.049-0.01l0.449,0.01H59.455z M59.455,135.248v5.005l-0.049-0.01
				l-1.121-0.047l-1.113-0.097l-1.086-0.136l-1.084-0.185l-1.068-0.205l-1.056-0.245l-1.042-0.262l-1.029-0.297l-1.018-0.304
				l-1.018-0.322l-1.005-0.338l-0.999-0.346l-0.988-0.345l-0.98-0.347l-0.983-0.348l-0.976-0.348l-0.969-0.329l-0.963-0.322
				l-0.969-0.309l-0.955-0.295l-0.963-0.265l-0.966-0.253l-0.957-0.22l-0.963-0.201l-0.963-0.157l-0.965-0.136l-0.963-0.095
				l-0.977-0.066l-0.984-0.019l-0.98,0.024l-1,0.07l-1.006,0.122l-0.685-4.945l1.241-0.143l1.217-0.087l1.213-0.027l1.182,0.021
				l1.17,0.063l1.159,0.117l1.14,0.152l1.119,0.198l1.1,0.22l1.093,0.26l1.066,0.271l1.059,0.305l1.053,0.313l1.027,0.33
				l1.023,0.339l1.008,0.352l0.994,0.346l0.983,0.349l0.98,0.347l0.97,0.344l0.958,0.326l0.949,0.318l0.938,0.302l0.94,0.285
				l0.933,0.257l0.924,0.242l0.92,0.207l0.91,0.187l0.908,0.144l0.912,0.118l0.899,0.077l0.904,0.045L59.455,135.248z
				 M154.675,118.451l-0.743,4.946l-1.097-0.149l-1.107-0.104l-1.104-0.069l-1.102-0.027l-1.119,0.014l-1.107,0.049l-1.112,0.083
				l-1.114,0.106l-1.119,0.136l-1.127,0.163l-1.115,0.198l-1.131,0.211l-1.129,0.231l-1.125,0.248l-1.133,0.264l-1.139,0.287
				l-1.137,0.289l-1.133,0.305l-1.14,0.302l-1.138,0.316l-1.143,0.314l-1.139,0.316l-1.145,0.322l-1.151,0.305l-1.136,0.297
				l-1.152,0.296l-1.141,0.281l-1.154,0.258l-1.15,0.249l-1.146,0.229l-1.152,0.205l-1.158,0.181l-0.703-4.946l1.039-0.158
				l1.055-0.187l1.069-0.21l1.073-0.229l1.076-0.258l1.1-0.262l1.094-0.277l1.119-0.296l1.111-0.308l1.125-0.301l1.139-0.314
				l1.143-0.316l1.156-0.315l1.16-0.321l1.172-0.306l1.174-0.308l1.179-0.287l1.192-0.283l1.203-0.27l1.205-0.251l1.211-0.229
				l1.232-0.198l1.225-0.184l1.236-0.155l1.249-0.124l1.251-0.086l1.265-0.049l1.255-0.012l1.278,0.027l1.281,0.068l1.28,0.122
				L154.675,118.451z M117.737,129.503l-0.203,0.029h-0.147L117.737,129.503z M117.034,124.557l0.703,4.946l-0.351,0.029
				l-0.978-0.027l-0.969-0.048l-0.959-0.088l-0.945-0.116l-0.927-0.142l-0.921-0.165l-0.906-0.198l-0.893-0.205l-0.887-0.221
				l-0.873-0.239l-0.86-0.25l-0.857-0.262l-0.846-0.27l-0.842-0.266l-0.834-0.271l-0.822-0.271l-0.823-0.274l-0.813-0.27
				l-0.805-0.268l-0.807-0.25l-0.799-0.24l-0.801-0.23l-0.796-0.22l-0.79-0.204l-0.793-0.186l-0.789-0.157l-0.783-0.146
				l-0.792-0.119l-0.788-0.098l-0.785-0.069l-0.791-0.05l-0.801-0.006v-5.004l0.975,0.027l0.971,0.047l0.96,0.089l0.944,0.116
				l0.928,0.142l0.921,0.165l0.905,0.195l0.893,0.206l0.887,0.224l0.873,0.238l0.861,0.25l0.857,0.262l0.846,0.27l0.844,0.266
				l0.832,0.272l0.822,0.271l0.822,0.273l0.813,0.27l0.806,0.267l0.805,0.253l0.8,0.239l0.802,0.231l0.795,0.217l0.789,0.203
				l0.793,0.187l0.789,0.157l0.785,0.147l0.791,0.12l0.787,0.098l0.783,0.069l0.793,0.049l0.802,0.005L117.034,124.557z
				 M90.313,118.703 M90.313,118.703v5.004l-0.877,0.008l-0.867,0.055l-0.885,0.08l-0.886,0.11l-0.896,0.14l-0.905,0.164
				l-0.906,0.19l-0.915,0.202l-0.916,0.231l-0.936,0.247l-0.933,0.262l-0.936,0.284l-0.945,0.282l-0.955,0.301l-0.954,0.297
				l-0.964,0.309l-0.965,0.307l-0.974,0.316l-0.973,0.301l-0.985,0.302l-0.994,0.285l-0.993,0.281l-0.994,0.266l-1.013,0.254
				l-1.014,0.239l-1.023,0.209l-1.023,0.185l-1.032,0.159l-1.043,0.13l-1.041,0.097l-1.064,0.057l-1.051,0.029v-5.005l0.876-0.01
				l0.866-0.054l0.887-0.079l0.887-0.111l0.894-0.139l0.906-0.166l0.907-0.19l0.914-0.201l0.916-0.23l0.935-0.246l0.936-0.263
				l0.934-0.285l0.945-0.283l0.955-0.3l0.953-0.297l0.965-0.307l0.965-0.309l0.974-0.314l0.974-0.301l0.983-0.305l0.995-0.283
				l0.994-0.281l0.992-0.268l1.013-0.25l1.014-0.24l1.024-0.209l1.023-0.185l1.032-0.161l1.043-0.128l1.041-0.099l1.063-0.055
				L90.313,118.703z M59.455,130.285l-0.049-0.012l0.451,0.012H59.455z M59.455,125.28v5.005l-0.049-0.012l-1.121-0.045
				l-1.113-0.097l-1.086-0.136l-1.084-0.185l-1.068-0.206l-1.056-0.246l-1.042-0.262l-1.029-0.295l-1.028-0.307l-1.008-0.321
				l-1.005-0.336l-0.999-0.345l-0.988-0.344l-0.98-0.35l-0.983-0.349l-0.966-0.345l-0.979-0.33l-0.963-0.322l-0.969-0.309
				l-0.955-0.295l-0.963-0.266l-0.966-0.252l-0.957-0.219l-0.963-0.2l-0.963-0.161l-0.965-0.134l-0.963-0.097l-0.977-0.064
				l-0.984-0.02l-0.98,0.027l-1,0.068l-1.006,0.122l-0.685-4.946l1.241-0.142l1.217-0.087l1.213-0.027l1.182,0.021l1.17,0.063
				l1.159,0.116l1.14,0.153l1.119,0.198l1.1,0.219l1.093,0.258l1.066,0.273l1.059,0.305l1.053,0.314l1.027,0.33l1.023,0.34
				l0.999,0.351l1.003,0.345l0.983,0.35l0.98,0.348l0.97,0.343l0.958,0.328l0.949,0.315l0.948,0.303l0.93,0.285l0.933,0.256
				l0.924,0.244l0.92,0.206l0.91,0.187l0.908,0.144l0.912,0.116l0.899,0.08l0.904,0.044L59.455,125.28z M154.675,108.163
				l-0.743,4.946l-1.097-0.149l-1.107-0.103l-1.104-0.07l-1.102-0.027l-1.119,0.012l-1.107,0.051l-1.112,0.083l-1.114,0.106
				l-1.119,0.137l-1.127,0.162l-1.115,0.198l-1.131,0.213l-1.129,0.229l-1.125,0.248l-1.133,0.264l-1.139,0.287l-1.137,0.289
				l-1.133,0.305l-1.14,0.303l-1.138,0.316l-1.143,0.315l-1.148,0.314l-1.135,0.322l-1.151,0.305l-1.136,0.296l-1.152,0.297
				l-1.141,0.281l-1.154,0.258l-1.15,0.249l-1.146,0.229l-1.152,0.206l-1.158,0.18l-0.703-4.943l1.039-0.161l1.055-0.187
				l1.069-0.209l1.073-0.229l1.076-0.258l1.1-0.262l1.094-0.277l1.119-0.297l1.111-0.307l1.135-0.301l1.129-0.313l1.143-0.317
				l1.156-0.316l1.16-0.322l1.172-0.307l1.174-0.306l1.179-0.287l1.192-0.283l1.203-0.27l1.205-0.251l1.211-0.229l1.232-0.197
				l1.225-0.185l1.236-0.155l1.249-0.124l1.251-0.085l1.265-0.049l1.255-0.012l1.278,0.027l1.281,0.067l1.28,0.122L154.675,108.163z
				 M117.737,119.215l-0.203,0.029h-0.147L117.737,119.215z M117.034,114.271l0.703,4.943l-0.351,0.029l-0.978-0.027l-0.969-0.048
				l-0.959-0.087l-0.945-0.117l-0.927-0.142l-0.921-0.165l-0.906-0.195l-0.893-0.206l-0.887-0.223l-0.873-0.239l-0.86-0.25
				l-0.857-0.262l-0.846-0.27l-0.842-0.266l-0.834-0.271l-0.822-0.281l-0.823-0.264l-0.813-0.27l-0.805-0.268l-0.807-0.25
				l-0.799-0.241l-0.801-0.23l-0.796-0.22l-0.79-0.203l-0.793-0.187l-0.789-0.157l-0.783-0.146l-0.792-0.122l-0.788-0.095
				l-0.785-0.07l-0.791-0.048l-0.801-0.008v-5.003l0.975,0.025l0.971,0.049l0.96,0.089l0.944,0.116l0.928,0.142l0.921,0.165
				l0.905,0.196l0.893,0.205l0.887,0.224l0.873,0.238l0.861,0.25l0.857,0.262l0.846,0.271l0.844,0.266l0.832,0.27l0.822,0.283
				l0.822,0.264l0.813,0.27l0.806,0.268l0.805,0.25l0.8,0.24l0.802,0.231l0.795,0.219l0.789,0.202l0.793,0.188l0.789,0.156
				l0.785,0.146l0.791,0.121l0.787,0.097l0.783,0.069l0.793,0.049l0.802,0.008L117.034,114.271z M90.313,108.415 M90.313,108.415
				v5.003l-0.877,0.01l-0.867,0.054l-0.885,0.08l-0.886,0.11l-0.896,0.14l-0.905,0.165l-0.906,0.189l-0.915,0.202l-0.926,0.23
				l-0.926,0.249l-0.933,0.262l-0.936,0.283l-0.945,0.283l-0.955,0.301l-0.954,0.296l-0.964,0.309l-0.965,0.308l-0.974,0.315
				l-0.973,0.3l-0.985,0.303l-0.994,0.285l-0.993,0.281l-1.004,0.268l-1.003,0.251l-1.014,0.24l-1.023,0.21l-1.023,0.184
				l-1.032,0.159l-1.043,0.13l-1.041,0.1l-1.064,0.054l-1.051,0.029v-5.005l0.876-0.01l0.866-0.053l0.887-0.08l0.887-0.111
				l0.894-0.138l0.906-0.167l0.907-0.189l0.914-0.202l0.926-0.23l0.925-0.246l0.936-0.263l0.934-0.285l0.945-0.283l0.955-0.3
				l0.953-0.295l0.965-0.309l0.965-0.309l0.974-0.313l0.974-0.301l0.983-0.305l0.995-0.283l0.994-0.281l1.002-0.268l1.003-0.25
				l1.014-0.241l1.024-0.21l1.023-0.184l1.032-0.161l1.043-0.128l1.041-0.099l1.063-0.055L90.313,108.415z M59.455,119.997
				l-0.049-0.01l0.449,0.01H59.455z M59.455,114.992v5.005l-0.049-0.01l-1.121-0.045l-1.113-0.099l-1.086-0.136l-1.084-0.185
				l-1.068-0.205l-1.056-0.244l-1.042-0.263l-1.029-0.296l-1.018-0.305l-1.018-0.322l-1.005-0.338l-0.999-0.347l-0.988-0.344
				l-0.98-0.347l-0.983-0.348l-0.976-0.348l-0.969-0.329l-0.963-0.322l-0.969-0.308l-0.955-0.295l-0.963-0.266l-0.966-0.255
				l-0.957-0.217l-0.963-0.2l-0.963-0.161l-0.965-0.134l-0.963-0.097l-0.977-0.063l-0.984-0.02l-0.98,0.027l-1,0.067l-1.006,0.122
				l-0.685-4.946l1.241-0.142l1.217-0.087l1.213-0.027l1.182,0.021l1.17,0.063l1.159,0.117l1.14,0.152l1.119,0.198l1.1,0.22
				l1.093,0.258l1.066,0.274l1.059,0.304l1.053,0.313l1.027,0.33l1.023,0.339l1.008,0.352l0.994,0.346l0.983,0.35l0.98,0.347
				l0.97,0.343l0.958,0.326l0.949,0.318l0.938,0.303l0.94,0.285l0.933,0.256l0.924,0.242l0.92,0.207l0.91,0.187l0.908,0.144
				l0.912,0.118l0.899,0.078l0.904,0.044L59.455,114.992z"/>
		</g>
		<g>
			<defs>
				<rect id="XMLID_9_" width="181.259" height="181.258"/> 
			</defs>
			<clipPath id="XMLID_8_">
				<use xlink:href="#XMLID_9_" />
			</clipPath>
			<path clip-path="url(#XMLID_8_)" fill-rule="evenodd" clip-rule="evenodd" fill="#CBE8F2" d="M90.63,23.899
				c36.754,0,66.729,29.976,66.729,66.73s-29.976,66.729-66.729,66.729c-36.755,0-66.731-29.976-66.731-66.729
				S53.875,23.899,90.63,23.899 M90.63,1.25c49.229,0,89.379,40.148,89.379,89.379c0,49.23-40.149,89.379-89.379,89.379
				c-49.231,0-89.38-40.148-89.38-89.379C1.25,41.398,41.399,1.25,90.63,1.25"/>
			<path clip-path="url(#XMLID_8_)" fill="none" stroke="#070606" stroke-width="2.5" d="M90.63,23.899
				c36.754,0,66.729,29.976,66.729,66.73s-29.976,66.729-66.729,66.729c-36.755,0-66.731-29.976-66.731-66.729
				S53.875,23.899,90.63,23.899 M90.63,1.25c49.229,0,89.379,40.148,89.379,89.379c0,49.23-40.149,89.379-89.379,89.379
				c-49.231,0-89.38-40.148-89.38-89.379C1.25,41.398,41.399,1.25,90.63,1.25z"/>
			<path clip-path="url(#XMLID_8_)" fill-rule="evenodd" clip-rule="evenodd" d="M54.432,156.008c1.557,0,2.826,1.271,2.826,2.826
				c0,1.558-1.269,2.828-2.826,2.828c-1.558,0-2.826-1.271-2.826-2.828C51.605,157.279,52.874,156.008,54.432,156.008"/>
			<path clip-path="url(#XMLID_8_)" fill-rule="evenodd" clip-rule="evenodd" d="M128.348,156.008c1.558,0,2.827,1.271,2.827,2.826
				c0,1.558-1.27,2.828-2.827,2.828c-1.556,0-2.826-1.271-2.826-2.828C125.521,157.279,126.792,156.008,128.348,156.008"/>
			<path clip-path="url(#XMLID_8_)" fill-rule="evenodd" clip-rule="evenodd" d="M136.638,146.602l2.701,3.586l6.943,2.423
				l-1.362,1.026l-3.595-1.294c-0.666-0.247-1.313-0.507-1.939-0.786c0.08,0.635,0.148,1.365,0.204,2.194l0.235,3.726l-1.307,0.983
				l-0.299-7.429l-2.701-3.586L136.638,146.602z M146.718,142.955l0.895,0.862l-3.115,3.235l-2.828-2.732
				c0.082-0.877,0.279-1.674,0.588-2.396c0.31-0.72,0.734-1.358,1.269-1.911c0.724-0.75,1.541-1.277,2.454-1.578
				c0.911-0.305,1.822-0.316,2.729-0.043c0.91,0.273,1.74,0.771,2.488,1.495c0.743,0.718,1.285,1.542,1.627,2.474
				c0.346,0.931,0.391,1.84,0.143,2.725c-0.252,0.883-0.745,1.705-1.479,2.464c-0.531,0.551-1.102,0.964-1.714,1.236
				c-0.606,0.274-1.191,0.385-1.754,0.327c-0.566-0.055-1.167-0.264-1.808-0.625l0.629-1.154c0.5,0.262,0.941,0.413,1.326,0.458
				c0.389,0.045,0.799-0.027,1.237-0.214c0.438-0.186,0.844-0.473,1.214-0.856c0.447-0.462,0.763-0.93,0.945-1.4
				c0.186-0.474,0.262-0.92,0.234-1.351c-0.031-0.427-0.128-0.828-0.291-1.21c-0.283-0.647-0.699-1.239-1.253-1.772
				c-0.681-0.656-1.362-1.089-2.046-1.296c-0.686-0.208-1.352-0.194-2.008,0.038c-0.654,0.233-1.223,0.6-1.709,1.102
				c-0.423,0.439-0.748,0.947-0.981,1.527c-0.237,0.578-0.361,1.064-0.376,1.464l1.422,1.374L146.718,142.955z M157.218,130.252
				c-1.096-0.658-2.135-0.881-3.119-0.671c-0.986,0.209-1.744,0.76-2.277,1.648c-0.545,0.905-0.676,1.841-0.389,2.807
				c0.285,0.968,1.014,1.804,2.184,2.508c0.738,0.444,1.459,0.704,2.162,0.786c0.701,0.083,1.35-0.027,1.941-0.324
				c0.594-0.301,1.068-0.749,1.429-1.348c0.513-0.852,0.66-1.76,0.442-2.726C159.376,131.969,158.583,131.074,157.218,130.252
				 M157.981,129.023c1.508,0.906,2.445,2.021,2.811,3.343c0.367,1.323,0.167,2.626-0.605,3.908
				c-0.502,0.838-1.16,1.474-1.963,1.907c-0.807,0.43-1.674,0.608-2.604,0.531c-0.929-0.076-1.848-0.391-2.756-0.936
				c-0.924-0.555-1.637-1.233-2.139-2.042c-0.504-0.81-0.737-1.668-0.703-2.574c0.037-0.907,0.291-1.755,0.766-2.543
				c0.516-0.857,1.178-1.499,1.999-1.922c0.819-0.427,1.689-0.598,2.611-0.515C156.321,128.264,157.183,128.545,157.981,129.023
				 M157.243,119.482l9.686,4.313l-0.572,1.283l-8.541-3.803l-2.125,4.77l-1.143-0.509L157.243,119.482z M165.657,111.322
				c-1.201-0.436-2.262-0.457-3.188-0.063c-0.93,0.394-1.568,1.078-1.922,2.054c-0.361,0.992-0.311,1.937,0.152,2.83
				c0.467,0.894,1.342,1.577,2.623,2.043c0.809,0.295,1.567,0.415,2.271,0.36c0.705-0.052,1.32-0.283,1.847-0.688
				c0.523-0.407,0.905-0.94,1.144-1.596c0.342-0.936,0.313-1.854-0.084-2.761C168.104,112.596,167.155,111.868,165.657,111.322
				 M166.173,109.971c1.654,0.604,2.787,1.518,3.4,2.745c0.611,1.229,0.662,2.546,0.148,3.952c-0.333,0.918-0.855,1.669-1.563,2.246
				c-0.709,0.578-1.527,0.918-2.454,1.019c-0.925,0.103-1.89-0.028-2.882-0.392c-1.014-0.368-1.844-0.9-2.49-1.596
				c-0.65-0.701-1.043-1.498-1.182-2.395c-0.139-0.897-0.049-1.776,0.266-2.642c0.344-0.94,0.873-1.695,1.594-2.267
				c0.722-0.576,1.545-0.91,2.468-1.006C164.398,109.542,165.298,109.652,166.173,109.971 M162.688,98.131l10.473,1.659
				l-0.225,1.421l-9.094,4.198l8.224,1.302l-0.21,1.33l-10.473-1.66l0.224-1.42l9.101-4.197l-8.229-1.304L162.688,98.131z
				 M162.94,87.388l10.598,0.37l-0.049,1.404l-4.354-0.15l-0.191,5.506l4.351,0.151l-0.048,1.404l-10.599-0.37l0.052-1.404
				l4.993,0.174l0.192-5.506l-4.993-0.175L162.94,87.388z M166.222,83.729l-0.184,1.437c-1.177-0.151-2.113-0.572-2.811-1.255
				c-0.691-0.685-1.105-1.573-1.24-2.672c-0.139-1.133-0.021-2.083,0.351-2.85c0.376-0.769,0.979-1.393,1.81-1.87
				c0.83-0.477,1.75-0.779,2.751-0.901c1.097-0.134,2.079-0.043,2.946,0.273c0.867,0.319,1.559,0.84,2.078,1.562
				c0.521,0.718,0.835,1.543,0.949,2.472c0.129,1.053-0.029,1.971-0.479,2.754c-0.449,0.784-1.139,1.378-2.077,1.777l-0.491-1.329
				c0.736-0.339,1.249-0.759,1.543-1.27c0.293-0.504,0.396-1.11,0.309-1.816c-0.098-0.808-0.375-1.458-0.83-1.955
				c-0.455-0.496-1.021-0.812-1.703-0.952c-0.678-0.14-1.367-0.167-2.059-0.082c-0.896,0.109-1.661,0.336-2.297,0.678
				c-0.635,0.343-1.084,0.808-1.348,1.4c-0.265,0.594-0.354,1.208-0.275,1.85c0.096,0.778,0.4,1.41,0.916,1.897
				C164.6,83.364,165.313,83.646,166.222,83.729 M159.003,67.046l10.242-2.745l1.984,7.403l-1.211,0.325l-1.62-6.05l-3.136,0.84
				l1.52,5.666l-1.203,0.322l-1.52-5.666l-3.484,0.935l1.686,6.287l-1.209,0.325L159.003,67.046z M156.104,61.574l8.539-3.804
				l-1.42-3.191l1.145-0.51l3.418,7.677l-1.145,0.51l-1.426-3.207l-8.541,3.805L156.104,61.574z M149.028,46.989l1.297,1.854
				c0.4,0.572,0.771,0.986,1.104,1.237c0.336,0.251,0.668,0.405,0.998,0.462c0.461,0.083,0.979,0.039,1.543-0.13
				c0.566-0.172,1.178-0.484,1.834-0.944c0.909-0.637,1.501-1.274,1.78-1.912c0.281-0.643,0.353-1.232,0.22-1.775
				c-0.096-0.392-0.387-0.929-0.863-1.61l-1.279-1.827L149.028,46.989z M147.198,46.558l8.685-6.08l2.093,2.991
				c0.473,0.675,0.793,1.22,0.961,1.635c0.234,0.576,0.321,1.146,0.27,1.707c-0.068,0.729-0.32,1.418-0.766,2.067
				c-0.441,0.65-1.051,1.245-1.824,1.786c-0.66,0.462-1.298,0.796-1.916,0.996c-0.617,0.204-1.178,0.304-1.682,0.294
				c-0.503-0.007-0.949-0.086-1.339-0.24c-0.392-0.149-0.781-0.393-1.161-0.729c-0.385-0.338-0.76-0.768-1.125-1.292L147.198,46.558
				z M139.888,38.583l7.627-7.366l1,1.035l-2.119,9.79l5.988-5.782l0.936,0.968l-7.628,7.363l-1.001-1.034l2.126-9.793l-5.993,5.788
				L139.888,38.583z M136.048,30.198l2.873,2.164l0.881-3.01c0.27-0.916,0.51-1.652,0.725-2.209
				c-0.518,0.461-1.076,0.886-1.678,1.274L136.048,30.198z M130.985,31.833l9.635-6.016l1.206,0.91l-2.915,11.079l-1.278-0.964
				l0.944-3.307l-3.539-2.669l-2.861,1.866L130.985,31.833z M124.917,23.21l0.564-1.106l4.003,2.031l-1.784,3.505
				c-0.865,0.177-1.686,0.221-2.466,0.138c-0.778-0.087-1.513-0.305-2.2-0.656c-0.927-0.471-1.67-1.099-2.225-1.885
				c-0.557-0.782-0.834-1.649-0.84-2.597c-0.004-0.949,0.231-1.888,0.705-2.816c0.467-0.92,1.098-1.678,1.889-2.28
				c0.789-0.601,1.645-0.911,2.564-0.931c0.918-0.017,1.846,0.214,2.789,0.693c0.682,0.347,1.244,0.772,1.684,1.276
				c0.438,0.5,0.715,1.028,0.826,1.584c0.113,0.557,0.088,1.194-0.072,1.912l-1.285-0.265c0.103-0.554,0.118-1.022,0.051-1.404
				c-0.072-0.382-0.26-0.756-0.568-1.121c-0.305-0.363-0.699-0.668-1.174-0.91c-0.572-0.291-1.111-0.456-1.615-0.492
				c-0.507-0.041-0.957,0.017-1.358,0.17s-0.757,0.363-1.073,0.631c-0.537,0.461-0.98,1.034-1.328,1.717
				c-0.43,0.843-0.646,1.621-0.643,2.337c0.002,0.713,0.211,1.35,0.622,1.906c0.416,0.559,0.933,0.995,1.556,1.313
				c0.543,0.278,1.125,0.441,1.744,0.493c0.623,0.056,1.125,0.033,1.514-0.07l0.896-1.759L124.917,23.21z M108.546,21.272
				l3.625-9.964l1.352,0.493l2.389,9.728l2.846-7.824l1.264,0.462l-3.625,9.962l-1.352-0.492l-2.385-9.733l-2.849,7.828
				L108.546,21.272z M104.712,20.628l2.565-10.288l1.36,0.34l-2.564,10.288L104.712,20.628z M96.188,13.454l2.986,0.421
				c0.635,0.09,1.143,0.094,1.518,0.012c0.378-0.083,0.679-0.254,0.906-0.516c0.225-0.264,0.361-0.562,0.41-0.904
				c0.07-0.494-0.053-0.929-0.368-1.299c-0.313-0.371-0.86-0.609-1.642-0.72L96.677,9.98L96.188,13.454z M93.976,19.124
				l1.476-10.499l4.655,0.654c0.938,0.132,1.633,0.327,2.093,0.584c0.46,0.257,0.804,0.643,1.03,1.161
				c0.223,0.522,0.293,1.069,0.211,1.645c-0.104,0.747-0.432,1.338-0.986,1.783c-0.556,0.442-1.348,0.663-2.373,0.659
				c0.346,0.229,0.6,0.44,0.764,0.642c0.355,0.429,0.674,0.949,0.959,1.558l1.426,3.115l-1.748-0.247l-1.083-2.38
				c-0.317-0.686-0.583-1.216-0.8-1.586c-0.216-0.371-0.418-0.64-0.605-0.801c-0.189-0.164-0.389-0.286-0.596-0.371
				c-0.152-0.052-0.407-0.107-0.766-0.157l-1.612-0.227l-0.655,4.663L93.976,19.124z M83.817,19.514L83.449,8.917l7.662-0.268
				L91.153,9.9l-6.258,0.219l0.114,3.244l5.861-0.204l0.043,1.243l-5.862,0.204l0.124,3.607l6.508-0.226l0.043,1.249L83.817,19.514z
				 M74.223,21l-1.659-10.47l7.57-1.201l0.196,1.238l-6.185,0.979l0.506,3.206l5.794-0.917l0.196,1.228l-5.795,0.917l0.564,3.565
				l6.431-1.018l0.196,1.235L74.223,21z M63.873,24.353l-3.627-9.963l1.352-0.491l8.08,5.916l-2.848-7.821l1.266-0.461l3.626,9.963
				l-1.353,0.491l-8.082-5.924l2.85,7.829L63.873,24.353z M60.373,25.888l-4.813-9.446l1.249-0.636l4.814,9.445L60.373,25.888z
				 M52.192,25.434l-0.639-1.063l3.846-2.32l2.023,3.371c-0.306,0.826-0.703,1.546-1.188,2.163c-0.486,0.615-1.06,1.121-1.72,1.517
				c-0.893,0.537-1.819,0.834-2.778,0.89s-1.841-0.167-2.648-0.665s-1.479-1.195-2.016-2.089c-0.531-0.885-0.839-1.822-0.93-2.811
				c-0.093-0.989,0.098-1.877,0.568-2.667c0.472-0.787,1.159-1.455,2.065-2c0.655-0.391,1.314-0.643,1.973-0.75
				c0.658-0.107,1.254-0.06,1.783,0.139c0.532,0.2,1.058,0.557,1.584,1.073l-0.908,0.95c-0.414-0.38-0.803-0.641-1.162-0.785
				c-0.363-0.143-0.779-0.181-1.252-0.113c-0.469,0.066-0.937,0.237-1.394,0.513c-0.549,0.329-0.975,0.7-1.275,1.107
				c-0.302,0.409-0.491,0.822-0.574,1.243c-0.081,0.423-0.093,0.834-0.032,1.245c0.105,0.698,0.355,1.378,0.75,2.037
				c0.488,0.811,1.033,1.403,1.64,1.781c0.609,0.378,1.258,0.539,1.95,0.483c0.691-0.057,1.335-0.262,1.935-0.623
				c0.523-0.312,0.971-0.72,1.345-1.218c0.378-0.498,0.622-0.937,0.741-1.319l-1.017-1.694L52.192,25.434z M41.652,38.396
				l-6.671-8.239l1.117-0.906l9.568,2.964l-5.24-6.469l1.047-0.847l6.672,8.239l-1.12,0.906l-9.57-2.969l5.242,6.474L41.652,38.396z
				 M34.822,45.371l-7.629-7.364l5.327-5.515l0.9,0.869l-4.352,4.506l2.335,2.255l4.076-4.22l0.894,0.865l-4.074,4.219l2.596,2.506
				l4.521-4.682l0.9,0.871L34.822,45.371z M27.43,56.158l-8.893-5.777l3.897-5.999l1.05,0.683l-3.13,4.82l2.753,1.788l2.708-4.17
				l1.05,0.681l-2.709,4.172l4.039,2.623L27.43,56.158z M18.24,63.494c1.149,0.56,2.202,0.692,3.164,0.397
				c0.963-0.297,1.672-0.909,2.126-1.841c0.464-0.95,0.511-1.892,0.143-2.831c-0.37-0.937-1.167-1.709-2.395-2.307
				c-0.774-0.378-1.514-0.574-2.221-0.595c-0.707-0.022-1.342,0.145-1.908,0.492c-0.563,0.352-1,0.838-1.305,1.467
				c-0.436,0.894-0.504,1.811-0.204,2.754C15.939,61.973,16.807,62.792,18.24,63.494 M17.586,64.784
				c-1.582-0.771-2.613-1.799-3.094-3.084c-0.48-1.287-0.393-2.602,0.264-3.946c0.428-0.879,1.025-1.571,1.789-2.072
				c0.766-0.5,1.615-0.752,2.547-0.756c0.932-0.006,1.875,0.227,2.828,0.691c0.967,0.473,1.737,1.087,2.308,1.85
				c0.573,0.762,0.879,1.596,0.924,2.502c0.043,0.908-0.136,1.774-0.541,2.602c-0.437,0.897-1.045,1.593-1.822,2.087
				c-0.779,0.496-1.633,0.743-2.558,0.741C19.305,65.396,18.422,65.192,17.586,64.784 M19.878,77.31l-4.356-1.087l-6.918,2.487
				l0.412-1.657l3.607-1.254c0.672-0.229,1.339-0.431,2.002-0.609c-0.463-0.445-0.975-0.97-1.539-1.577l-2.527-2.749l0.394-1.584
				l4.906,5.584l4.358,1.086L19.878,77.31z M18.541,86.521L9.215,85.87l-0.244,3.483l-1.248-0.087l0.586-8.384l1.248,0.087
				l-0.244,3.5l9.326,0.653L18.541,86.521z M18.555,93.265l-10.598,0.37l-0.048-1.4l10.597-0.369L18.555,93.265z M16.069,104.237
				l-0.297-1.296c0.515-0.134,0.925-0.339,1.23-0.613c0.307-0.275,0.527-0.665,0.668-1.171c0.141-0.507,0.168-1.06,0.085-1.654
				c-0.075-0.532-0.218-0.987-0.432-1.372c-0.216-0.382-0.473-0.655-0.776-0.814c-0.303-0.158-0.616-0.217-0.941-0.172
				c-0.331,0.046-0.602,0.182-0.823,0.41c-0.22,0.226-0.381,0.568-0.486,1.03c-0.068,0.299-0.152,0.944-0.25,1.942
				c-0.097,0.996-0.219,1.702-0.369,2.117c-0.192,0.539-0.467,0.959-0.821,1.262c-0.355,0.297-0.773,0.482-1.257,0.549
				c-0.528,0.075-1.045-0.004-1.547-0.241c-0.504-0.234-0.914-0.626-1.237-1.169c-0.317-0.547-0.527-1.17-0.626-1.878
				c-0.11-0.778-0.081-1.479,0.087-2.112c0.164-0.629,0.471-1.137,0.912-1.526c0.442-0.386,0.969-0.639,1.583-0.749l0.287,1.319
				c-0.653,0.167-1.123,0.479-1.401,0.938c-0.283,0.463-0.365,1.095-0.252,1.901c0.118,0.84,0.359,1.43,0.721,1.773
				c0.361,0.34,0.76,0.48,1.191,0.421c0.381-0.054,0.672-0.235,0.875-0.539c0.207-0.303,0.359-1.034,0.456-2.2
				c0.095-1.165,0.21-1.973,0.341-2.418c0.198-0.652,0.492-1.154,0.881-1.506c0.392-0.351,0.869-0.566,1.432-0.646
				c0.56-0.077,1.107,0.005,1.646,0.258c0.539,0.25,0.987,0.655,1.348,1.216c0.357,0.561,0.59,1.217,0.695,1.965
				c0.133,0.951,0.108,1.768-0.08,2.446c-0.185,0.683-0.531,1.243-1.035,1.689C17.371,103.84,16.769,104.121,16.069,104.237
				 M15.784,113.695l-0.78-2.914c-0.166-0.618-0.359-1.088-0.582-1.4c-0.223-0.315-0.498-0.525-0.83-0.632
				c-0.328-0.104-0.658-0.114-0.99-0.025c-0.483,0.13-0.836,0.411-1.053,0.848c-0.219,0.435-0.225,1.03-0.02,1.79l0.868,3.241
				L15.784,113.695z M21.867,113.517l-10.24,2.745l-1.217-4.541c-0.244-0.914-0.338-1.632-0.281-2.155s0.279-0.989,0.668-1.4
				c0.391-0.409,0.869-0.687,1.432-0.838c0.726-0.196,1.4-0.126,2.024,0.214c0.624,0.335,1.136,0.977,1.535,1.924
				c0.075-0.405,0.173-0.724,0.291-0.955c0.257-0.492,0.612-0.988,1.06-1.489l2.311-2.529l0.456,1.705l-1.769,1.926
				c-0.506,0.56-0.891,1.013-1.145,1.358c-0.26,0.341-0.427,0.632-0.502,0.869c-0.076,0.238-0.113,0.467-0.109,0.691
				c0.012,0.164,0.062,0.418,0.156,0.769l0.42,1.571l4.549-1.22L21.867,113.517z M25.699,122.623l-9.529,4.647l-3.361-6.89
				l1.127-0.549l2.744,5.631l2.918-1.424l-2.571-5.271l1.118-0.545l2.571,5.271l3.243-1.583l-2.853-5.85l1.125-0.549L25.699,122.623
				z M28.826,128.619l-7.281,8.731l-0.738-1.328l5.401-6.146c0.431-0.492,0.849-0.935,1.249-1.326
				c-0.586,0.136-1.183,0.25-1.797,0.342l-8.123,1.229l-0.695-1.253l11.287-1.51L28.826,128.619z M32.754,134.393l-8.686,6.083
				l-0.804-1.15l8.686-6.081L32.754,134.393z M39.84,142.564l-7.627,7.365l-0.998-1.036l2.119-9.787l-5.988,5.782l-0.936-0.969
				l7.629-7.364l0.998,1.036l-2.123,9.793l5.992-5.788L39.84,142.564z M35.92,153.183l-1.092-0.883l3.857-4.762
				c0.669-0.826,1.296-1.408,1.878-1.744c0.584-0.335,1.241-0.456,1.976-0.364c0.738,0.087,1.502,0.455,2.297,1.098
				c0.77,0.625,1.296,1.271,1.568,1.932c0.278,0.664,0.317,1.333,0.118,2.008c-0.198,0.675-0.65,1.444-1.357,2.319l-3.856,4.761
				l-1.09-0.883l3.851-4.754c0.579-0.716,0.94-1.298,1.08-1.744c0.144-0.446,0.125-0.895-0.048-1.338
				c-0.176-0.448-0.498-0.861-0.967-1.24c-0.802-0.649-1.521-0.931-2.156-0.842c-0.633,0.088-1.371,0.648-2.207,1.682L35.92,153.183
				z"/>
			<path clip-path="url(#XMLID_8_)" fill-rule="evenodd" clip-rule="evenodd" d="M113.794,164.803l3.344-1.216l-2.021-2.354
				c-0.613-0.715-1.097-1.312-1.441-1.791c0.102,0.68,0.154,1.369,0.152,2.077L113.794,164.803z M112.425,169.887l0.199-11.236
				l1.403-0.512l7.624,8.391l-1.486,0.541l-2.237-2.568l-4.122,1.502l0.006,3.379L112.425,169.887z M102.81,171.744l-1.82-10.33
				l1.367-0.242l1.607,9.112l5.088-0.898l0.213,1.221L102.81,171.744z M96.208,172.373l-1.097-10.432l1.38-0.145l1.098,10.433
				L96.208,172.373z M82.596,172.666l4.247-5.32l-3.399-5.146l1.649,0.057l1.809,2.756c0.376,0.57,0.644,1.011,0.798,1.316
				c0.248-0.373,0.537-0.762,0.873-1.164l2.208-2.708l1.51,0.052l-3.856,4.813l3.774,5.682l-1.715-0.061l-2.509-3.831
				c-0.141-0.221-0.284-0.46-0.434-0.718c-0.249,0.373-0.424,0.629-0.528,0.771l-2.758,3.562L82.596,172.666z M73.711,166.68
				l3.516,0.558l-0.629-3.042c-0.192-0.921-0.322-1.678-0.394-2.266c-0.239,0.646-0.528,1.273-0.872,1.894L73.711,166.68z
				 M70.049,170.461l5.621-9.729l1.477,0.232l2.599,11.033l-1.563-0.247l-0.712-3.33l-4.332-0.687l-1.633,2.958L70.049,170.461z
				 M63.799,168.017l3.314-8.638l-3.226-1.236l0.445-1.158l7.762,2.979l-0.443,1.158l-3.241-1.245l-3.316,8.638L63.799,168.017z"/>
		</g>
	</g>
</svg>
